<?xml version="1.0" standalone="no"?>
<!DOCTYPE svg PUBLIC "-//W3C//DTD SVG 20010904//EN"
 "http://www.w3.org/TR/2001/REC-SVG-20010904/DTD/svg10.dtd">
<svg version="1.0" xmlns="http://www.w3.org/2000/svg"
 width="910.000000pt" height="512.000000pt" viewBox="0 0 910.000000 512.000000"
 preserveAspectRatio="xMidYMid meet">

<g transform="translate(0.000000,512.000000) scale(0.100000,-0.100000)"
fill="#000000" stroke="none">
<path d="M4350 4860 c-1033 -130 -1828 -900 -1985 -1925 -21 -133 -24 -478 -6
-605 34 -237 116 -511 225 -749 l65 -143 -196 -585 c-194 -582 -196 -586 -175
-602 11 -9 22 -25 24 -37 3 -19 23 -14 358 93 624 200 835 265 855 265 11 0
67 -23 125 -50 287 -137 561 -201 891 -209 229 -6 349 4 529 43 751 164 1339
672 1624 1401 208 534 219 1083 32 1620 -200 573 -666 1069 -1227 1307 -190
80 -329 121 -533 156 -135 23 -487 34 -606 20z m505 -496 c514 -69 984 -365
1277 -804 122 -183 201 -369 251 -587 19 -88 22 -126 22 -363 0 -256 -1 -269
-28 -384 -90 -376 -258 -673 -530 -932 -137 -131 -262 -219 -431 -304 -559
-282 -1198 -262 -1748 55 -42 25 -85 45 -95 45 -10 0 -140 -38 -288 -85 -335
-106 -365 -115 -365 -110 0 3 45 142 100 310 55 168 100 311 100 317 0 7 -29
60 -65 119 -275 451 -351 986 -210 1473 131 452 518 888 974 1098 329 151 670
201 1036 152z"/>
<path d="M3753 3710 c-23 -12 -70 -51 -103 -87 -132 -141 -179 -248 -187 -430
-6 -123 3 -191 44 -318 98 -306 403 -741 702 -999 175 -152 336 -246 596 -349
267 -107 363 -124 517 -92 148 30 328 148 378 246 32 61 70 208 77 290 l6 76
-34 25 c-45 34 -169 103 -356 199 -118 60 -164 79 -195 79 -45 0 -39 5 -206
-178 -51 -56 -101 -102 -110 -102 -26 0 -228 106 -311 163 -153 106 -305 270
-422 456 l-58 92 68 80 c78 89 121 181 121 255 0 32 -23 107 -80 259 -43 118
-91 237 -105 264 -37 75 -58 84 -189 89 -98 3 -116 1 -153 -18z"/>
</g>
</svg>
